<?xml version="1.0" encoding="utf-8"?>
<!-- Generator: Adobe Illustrator 25.2.3, SVG Export Plug-In . SVG Version: 6.00 Build 0)  -->
<svg version="1.1" id="Layer_1" xmlns="http://www.w3.org/2000/svg" xmlns:xlink="http://www.w3.org/1999/xlink" x="0px" y="0px"
	 viewBox="0 0 350 499" style="enable-background:new 0 0 350 499;" xml:space="preserve">
<style type="text/css">
	.st0{opacity:0.1;fill:url(#SVGID_1_);enable-background:new    ;}
	.st1{opacity:0.1;fill:url(#SVGID_2_);enable-background:new    ;}
	.st2{opacity:0.3;fill:url(#SVGID_3_);stroke:#00B7FF;stroke-width:1.9745;stroke-miterlimit:10;}
</style>
<linearGradient id="SVGID_1_" gradientUnits="userSpaceOnUse" x1="-1517.5759" y1="794.053" x2="-1432.265" y2="646.2903" gradientTransform="matrix(-0.5784 4.755138e-04 4.674354e-04 0.5686 -843.7457 -5.3189)">
	<stop  offset="0" style="stop-color:#03BF00"/>
	<stop  offset="0.2887" style="stop-color:#02C643"/>
	<stop  offset="0.9566" style="stop-color:#00D9E8"/>
	<stop  offset="0.9613" style="stop-color:#00D9E9"/>
	<stop  offset="0.996" style="stop-color:#FF0055"/>
</linearGradient>
<path class="st0" d="M0,359.5c28.3,0,51.2,23.3,51.2,52.2c0,28.9-22.9,52.3-51.1,52.3"/>
<linearGradient id="SVGID_2_" gradientUnits="userSpaceOnUse" x1="-2037.6896" y1="389.7003" x2="-1952.3601" y2="241.9055" gradientTransform="matrix(0.5783 -1.022702e-02 -1.005371e-02 -0.5685 1496.4764 464.5035)">
	<stop  offset="0" style="stop-color:#03BF00"/>
	<stop  offset="0.2887" style="stop-color:#02C643"/>
	<stop  offset="0.9566" style="stop-color:#00D9E8"/>
	<stop  offset="0.9613" style="stop-color:#00D9E9"/>
	<stop  offset="0.996" style="stop-color:#FF0055"/>
</linearGradient>
<path class="st1" d="M350,349.2c-28.3,0.5-51.6-22.5-52.1-51.3c-0.5-28.8,22-52.6,50.2-53.1"/>
<linearGradient id="SVGID_3_" gradientUnits="userSpaceOnUse" x1="65.0436" y1="492.8073" x2="311.059" y2="66.6962">
	<stop  offset="0" style="stop-color:#FFF000"/>
	<stop  offset="1" style="stop-color:#00FFFF"/>
</linearGradient>
<path class="st2" d="M287.5,122.8C285,181.2,235.6,227.8,175,227.8S65,181.2,62.5,122.8H0v351.9C0,488.1,11.2,499,24.9,499h300.6
	c13.8,0,24.9-10.9,24.9-24.3V122.8H287.5z"/>
</svg>
