<svg
   id="Layer_1"
   data-name="Layer 1"
   xmlns="http://www.w3.org/2000/svg"
   viewBox="0 0 718.14 273.2"
   >
    <defs>
     <style>
             .line{
              stroke: #ffffff;
              fill: transparent;
              stroke-width: 1vw;
              stroke-dasharray: 1000;
              stroke-dashoffset: 1000;
              fill: transparent;
              animation: lineAni 2s linear infinite;
            }
            .lineX{
              stroke: #000000;
              stroke-width: 3vw;
              fill: transparent;
              stroke-dasharray: 1000;
              stroke-dashoffset: 1000;
              animation: lineAni 2s linear infinite;
               animation-delay: 0.2s;
            }
            .a{
               stroke: #0f00f0;
              animation: lineAni 1.4s linear infinite;
               animation-delay: 2s;
            }
            .A{
              animation: lineAni 1.4s linear infinite;
               stroke: #000000;
               animation-delay: 2.17s; 
            }
            .b{
               stroke: #00ff00;
              animation: lineAni 1.7s linear infinite;
               animation-delay: 3.1s;
            }
            .B{
              animation: lineAni 1.7s linear infinite;
               stroke: #000000;
               animation-delay: 3.25s;
            }
            .c{
               stroke: #ff0000;
              animation: lineAni 2s linear infinite;
               animation-delay: 0.5s; 
            }
            .C{
              animation: lineAni 2s linear infinite;
               stroke: #000000;
               animation-delay: 0.59s;
            }
            @keyframes lineAni { 
              0%{
                stroke-dashoffset: 1000;
              }
              100%{
                stroke-dashoffset: 0;
              }
            }
     </style>
   </defs>
   <path 
     class="line"
     d="M406.5,398.5s10,24,21,15,17.43-5,20.71,2,31.29-2,34.29,10,11,21,20,15,10.84-33.8,20.92-16.9,13.17,29.74,23.12,26.32,21,2.58,27,7.58,19,11,33,10,38-3.14,38.5,9.93,1,31.72,9.73,31.39,8.77,29.68,18.77,5.68,26.19-31.88,29.59-19.94-2.38,31.79,15,22.86,22.4-15.92,27.4-1.92,14,18,24,13,35-4,37,5,10,7,27,22,25,18,26,34,20,14,22,20.49,29,11.51,23,29.51"
     transform="translate(-406.04 -391.85)"
   />
   <path
     class="lineX"
     d="M406.5,398.5s10,24,21,15,17.43-5,20.71,2,31.29-2,34.29,10,11,21,20,15,10.84-33.8,20.92-16.9,13.17,29.74,23.12,26.32,21,2.58,27,7.58,19,11,33,10,38-3.14,38.5,9.93,1,31.72,9.73,31.39,8.77,29.68,18.77,5.68,26.19-31.88,29.59-19.94-2.38,31.79,15,22.86,22.4-15.92,27.4-1.92,14,18,24,13,35-4,37,5,10,7,27,22,25,18,26,34,20,14,22,20.49,29,11.51,23,29.51"
     transform="translate(-406.04 -391.85)"
   />
     <path
     class="line a"
     d="M408.5,401.5s14,5,14,9,6,13,15,6,9-24,15-20,13,6,20,19,9,27,24,18,21-24,34-14,7,24,17,28,15-20,26-7,6,21,29,19,30-5,34,15,19,36,31,31,18-20,34-17,21-2,37,14,9,21.46,30,11.73,30-19.73,45-11.73,10,24,25,30,23,3,38,17,15,29,30,24,27-14,31-5-2,17.17,0,25.58-4,20.42,13,17.42,20,13,20,13"
     transform="translate(-408.33 -395.4)"
   />
     <path
     class="lineX A"
     d="M408.5,401.5s14,5,14,9,6,13,15,6,9-24,15-20,13,6,20,19,9,27,24,18,21-24,34-14,7,24,17,28,15-20,26-7,6,21,29,19,30-5,34,15,19,36,31,31,18-20,34-17,21-2,37,14,9,21.46,30,11.73,30-19.73,45-11.73,10,24,25,30,23,3,38,17,15,29,30,24,27-14,31-5-2,17.17,0,25.58-4,20.42,13,17.42,20,13,20,13"
     transform="translate(-408.33 -395.4)"
   />
   <path
     class="line b"
     d="M408.5,406.38s14-5.88,20,3.12,15,13,17,5,0-27,6-21,9,15,14,17,10.95,3.29,10.48,12.14,6.52,23.86,14.52,16.86,16.68-27.35,21.34-22.67,16.4,10.32,23,7,4.63-4.32,8.63,9.68,1,30,14,17,30-3,34,3,21,11,38,16,15.68,43.4,31.34,40.7,3.66-20,28.66-20.35,11.18,26,37.09,20.35,56.91-5.7,62.91,4.3,31,4,37,19,27,19,29,31,26,26,19,36-16,26-16,31,13,10,23,11"
     transform="translate(-408.31 -391.85)"
   />
   <path
     class="lineX B"
     d="M408.5,406.38s14-5.88,20,3.12,15,13,17,5,0-27,6-21,9,15,14,17,10.95,3.29,10.48,12.14,6.52,23.86,14.52,16.86,16.68-27.35,21.34-22.67,16.4,10.32,23,7,4.63-4.32,8.63,9.68,1,30,14,17,30-3,34,3,21,11,38,16,15.68,43.4,31.34,40.7,3.66-20,28.66-20.35,11.18,26,37.09,20.35,56.91-5.7,62.91,4.3,31,4,37,19,27,19,29,31,26,26,19,36-16,26-16,31,13,10,23,11"
     transform="translate(-408.31 -391.85)"
   />
   <path
     class="line c"
     d="M408.5,401.5s14,19,22,15,18-18,26-13,22,27,26,26,29-15,42-6,38,30,50,27,38-4,48,17,46,37.46,60.5,32.73,47.5-15.73,59.5-2.73,21,18,42,12,35-2,44,7,7,0,26,23,26,29,42,26,36-4,36,11-8,15,7,26,18-3,27,22V627"
     transform="translate(-408.1 -401.2)"
   />
   <path
     class="lineX C"
     d="M408.5,401.5s14,19,22,15,18-18,26-13,22,27,26,26,29-15,42-6,38,30,50,27,38-4,48,17,46,37.46,60.5,32.73,47.5-15.73,59.5-2.73,21,18,42,12,35-2,44,7,7,0,26,23,26,29,42,26,36-4,36,11-8,15,7,26,18-3,27,22V627"
     transform="translate(-408.1 -401.2)"
   />
</svg>