<svg width="800" height="800" viewBox="0 0 800 800" fill="none" xmlns="http://www.w3.org/2000/svg">
<path d="M799.752 400C781.428 516.52 745.775 550.579 682.635 628.857C619.495 695.183 528.67 805.927 400 799.752C283.48 781.428 249.421 745.775 171.143 682.635C104.817 619.495 -5.92693 528.67 0.247617 400C18.5721 283.48 54.2251 249.421 117.365 171.143C180.505 104.817 271.33 -5.92693 400 0.247617C516.52 18.5721 550.579 54.2251 628.857 117.365C695.183 180.505 805.927 271.33 799.752 400Z" fill="#3765AF"/>
<path d="M222.165 349.94C240.471 349.94 251.825 353.319 257.85 361.118C263.875 367.876 264.57 381.654 261.558 398.55C258.545 417.267 252.521 430.784 242.557 438.582C233.52 446.121 219.153 450.54 200.152 450.54H171.418L188.797 348.38C188.797 349.94 222.165 349.94 222.165 349.94ZM107 554H154.039L164.698 489.273H205.713C224.019 489.273 237.459 487.453 249.74 483.294C261.094 479.135 271.753 472.116 280.791 461.978C288.437 454.439 295.157 444.041 300.487 434.683C305.121 425.325 308.829 413.367 310.451 402.45C315.085 373.595 312.073 351.5 299.792 335.383C287.742 319.266 268.046 311.467 240.703 311.467H149.637L107 554Z" fill="white"/>
<path d="M357.954 247H404.993L394.334 311.727H436.044C461.765 311.727 480.766 316.926 489.803 327.844C499.767 337.982 503.474 355.139 498.145 378.014L478.448 491.092H430.714L449.715 383.993C452.032 372.036 451.337 363.457 447.398 359.298C443.69 355.139 436.044 352.539 423.994 352.539H386.919L362.588 491.092H315.549L357.954 247Z" fill="white"/>
<path d="M601.956 349.94C620.262 349.94 631.616 353.319 637.641 361.118C643.665 367.876 644.361 381.654 641.348 398.55C638.336 417.267 632.311 430.784 622.347 438.582C613.31 446.121 598.943 450.54 579.942 450.54H551.209L568.588 348.38C569.515 349.94 601.956 349.94 601.956 349.94ZM487.486 554H534.525L545.184 489.273H586.199C604.505 489.273 617.944 487.453 630.226 483.294C641.58 479.135 652.239 472.116 661.276 461.978C668.923 454.439 675.643 444.041 680.973 434.683C685.607 425.325 689.315 413.367 690.937 402.45C695.571 373.595 692.559 351.5 680.277 335.383C668.228 319.266 648.532 311.467 621.189 311.467H530.122L487.486 554Z" fill="white"/>
</svg>